<svg width="25" height="25" viewBox="0 0 25 25" fill="none" xmlns="http://www.w3.org/2000/svg">
<path d="M12.5207 6.02258C8.9227 6.02258 5.99495 8.90762 5.99495 12.4541C5.99495 16.0003 8.92229 18.8853 12.5207 18.8853C16.1186 18.8853 19.0464 16.0003 19.0464 12.4541C19.0464 8.90762 16.1186 6.02258 12.5207 6.02258ZM12.5207 16.5176C10.2328 16.5176 8.37191 14.6944 8.37191 12.4541C8.37191 10.2135 10.2328 8.39073 12.5207 8.39073C14.8081 8.39073 16.6694 10.2135 16.6694 12.4541C16.6694 14.6948 14.8085 16.5176 12.5207 16.5176Z" fill="black"/>
<path d="M17.8041 0H7.1959C3.2283 0 0 3.21537 0 7.16799V17.832C0 21.7842 3.22789 25 7.1959 25H17.8041C21.7721 25 25 21.7842 25 17.832V7.16799C25 3.21578 21.7721 0 17.8041 0ZM22.6185 17.832C22.6185 20.4763 20.4587 22.6278 17.8041 22.6278H7.1959C4.54129 22.6278 2.38146 20.4763 2.38146 17.832V7.16799C2.38146 4.52368 4.54129 2.37222 7.1959 2.37222H17.8041C20.4587 2.37222 22.6185 4.52368 22.6185 7.16799V17.832Z" fill="black"/>
<path d="M19.1625 7.28943C20.0105 7.28943 20.6979 6.60466 20.6979 5.75995C20.6979 4.91524 20.0105 4.23047 19.1625 4.23047C18.3145 4.23047 17.627 4.91524 17.627 5.75995C17.627 6.60466 18.3145 7.28943 19.1625 7.28943Z" fill="black"/>
</svg>
