<svg width="174" height="30" viewBox="0 0 174 30" fill="none" xmlns="http://www.w3.org/2000/svg">
<rect x="1" y="27" width="74" height="3" fill="#EF1434"/>
<rect x="83" width="87" height="3" fill="#E4D7C5"/>
<path d="M13.4375 23H10L4.82422 15.7637V23H1.79688V8.72266H4.82422V15.6367L9.94141 8.72266H13.1641L7.95898 15.5781L13.4375 23ZM19.4336 23.1953C16.0352 23.1953 14.3359 21.3301 14.3359 17.5996C14.3359 15.7441 14.7982 14.3281 15.7227 13.3516C16.6471 12.3685 17.972 11.877 19.6973 11.877C20.9603 11.877 22.0931 12.1243 23.0957 12.6191L22.2168 14.9238C21.748 14.735 21.3118 14.582 20.9082 14.4648C20.5046 14.3411 20.1009 14.2793 19.6973 14.2793C18.1478 14.2793 17.373 15.3796 17.373 17.5801C17.373 19.7155 18.1478 20.7832 19.6973 20.7832C20.2702 20.7832 20.8008 20.7083 21.2891 20.5586C21.7773 20.4023 22.2656 20.1615 22.7539 19.8359V22.3848C22.2721 22.6908 21.7839 22.9023 21.2891 23.0195C20.8008 23.1367 20.1823 23.1953 19.4336 23.1953ZM29.8145 13.9961C29.1829 13.9961 28.6882 14.1979 28.3301 14.6016C27.972 14.9987 27.7669 15.5651 27.7148 16.3008H31.8945C31.8815 15.5651 31.6895 14.9987 31.3184 14.6016C30.9473 14.1979 30.446 13.9961 29.8145 13.9961ZM30.2344 23.1953C28.4766 23.1953 27.1029 22.7103 26.1133 21.7402C25.1237 20.7702 24.6289 19.3965 24.6289 17.6191C24.6289 15.7897 25.0846 14.377 25.9961 13.3809C26.9141 12.3783 28.1803 11.877 29.7949 11.877C31.3379 11.877 32.5391 12.3164 33.3984 13.1953C34.2578 14.0742 34.6875 15.2884 34.6875 16.8379V18.2832H27.6465C27.679 19.1296 27.9297 19.7904 28.3984 20.2656C28.8672 20.7409 29.5247 20.9785 30.3711 20.9785C31.0286 20.9785 31.6504 20.9102 32.2363 20.7734C32.8223 20.6367 33.4342 20.4186 34.0723 20.1191V22.4238C33.5514 22.6842 32.9948 22.8763 32.4023 23C31.8099 23.1302 31.0872 23.1953 30.2344 23.1953ZM40.0879 12.082V16.2812H44.248V12.082H47.2266V23H44.248V18.498H40.0879V23H37.1094V12.082H40.0879ZM53.2324 12.082V16.3984C53.2324 16.8542 53.1576 17.9674 53.0078 19.7383L58.0469 12.082H61.6309V23H58.75V18.6445C58.75 17.8698 58.8151 16.776 58.9453 15.3633L53.9258 23H50.3516V12.082H53.2324ZM66.4258 23H63.2031L66.1426 18.6836C65.4395 18.3906 64.9056 17.9674 64.541 17.4141C64.1829 16.8607 64.0039 16.2096 64.0039 15.4609C64.0039 14.4062 64.3978 13.5794 65.1855 12.9805C65.9798 12.3815 67.0605 12.082 68.4277 12.082H73.5059V23H70.5273V18.9375H68.8867L66.4258 23ZM66.9238 15.4805C66.9238 15.9362 67.1029 16.2943 67.4609 16.5547C67.819 16.8086 68.2878 16.9355 68.8672 16.9355H70.5273V14.1816H68.4863C67.998 14.1816 67.6139 14.3021 67.334 14.543C67.0605 14.7773 66.9238 15.0898 66.9238 15.4805ZM83.3984 8.72266H86.123V15.6172L86.084 17.4629L85.9863 19.5625H86.0449L92.6367 8.72266H96.2598V23H93.5645V16.1445C93.5645 15.2266 93.623 13.8659 93.7402 12.0625H93.6621L87.041 23H83.3984V8.72266ZM109.707 14.9434C109.707 15.5293 109.521 16.0306 109.15 16.4473C108.786 16.8574 108.245 17.1211 107.529 17.2383V17.3164C108.304 17.4076 108.916 17.6745 109.365 18.1172C109.821 18.5534 110.049 19.0938 110.049 19.7383C110.049 20.7995 109.632 21.61 108.799 22.1699C107.965 22.7233 106.774 23 105.225 23H99.6289V12.082H105.225C106.722 12.082 107.842 12.3262 108.584 12.8145C109.333 13.2962 109.707 14.0059 109.707 14.9434ZM106.963 19.582C106.963 19.1523 106.797 18.8431 106.465 18.6543C106.133 18.459 105.635 18.3613 104.971 18.3613H102.607V20.9395H105.029C105.661 20.9395 106.139 20.8223 106.465 20.5879C106.797 20.347 106.963 20.0117 106.963 19.582ZM106.689 15.1777C106.689 14.5137 106.162 14.1816 105.107 14.1816H102.607V16.3398H104.766C105.397 16.3398 105.876 16.2487 106.201 16.0664C106.527 15.8841 106.689 15.5879 106.689 15.1777ZM119.355 23L118.779 21.5156H118.701C118.2 22.1471 117.682 22.5866 117.148 22.834C116.621 23.0749 115.931 23.1953 115.078 23.1953C114.03 23.1953 113.203 22.8958 112.598 22.2969C111.999 21.6979 111.699 20.8451 111.699 19.7383C111.699 18.5794 112.103 17.7266 112.91 17.1797C113.724 16.6263 114.948 16.3203 116.582 16.2617L118.477 16.2031V15.7246C118.477 14.6178 117.91 14.0645 116.777 14.0645C115.905 14.0645 114.88 14.3281 113.701 14.8555L112.715 12.8438C113.971 12.1862 115.365 11.8574 116.895 11.8574C118.359 11.8574 119.482 12.1764 120.264 12.8145C121.045 13.4525 121.436 14.4225 121.436 15.7246V23H119.355ZM118.477 17.9414L117.324 17.9805C116.458 18.0065 115.814 18.1628 115.391 18.4492C114.967 18.7357 114.756 19.1719 114.756 19.7578C114.756 20.5977 115.238 21.0176 116.201 21.0176C116.891 21.0176 117.441 20.819 117.852 20.4219C118.268 20.0247 118.477 19.4974 118.477 18.8398V17.9414ZM127.49 12.082V16.2812H131.65V12.082H134.629V23H131.65V18.498H127.49V23H124.512V12.082H127.49ZM140.127 17.5215C140.127 18.6022 140.303 19.4193 140.654 19.9727C141.012 20.526 141.592 20.8027 142.393 20.8027C143.187 20.8027 143.757 20.5293 144.102 19.9824C144.453 19.429 144.629 18.6087 144.629 17.5215C144.629 16.4408 144.453 15.6302 144.102 15.0898C143.75 14.5495 143.174 14.2793 142.373 14.2793C141.579 14.2793 141.006 14.5495 140.654 15.0898C140.303 15.6237 140.127 16.4342 140.127 17.5215ZM147.676 17.5215C147.676 19.2988 147.207 20.6888 146.27 21.6914C145.332 22.694 144.027 23.1953 142.354 23.1953C141.305 23.1953 140.381 22.9674 139.58 22.5117C138.779 22.0495 138.164 21.3887 137.734 20.5293C137.305 19.6699 137.09 18.6673 137.09 17.5215C137.09 15.7376 137.555 14.3509 138.486 13.3613C139.417 12.3717 140.726 11.877 142.412 11.877C143.46 11.877 144.385 12.1048 145.186 12.5605C145.986 13.0163 146.602 13.6706 147.031 14.5234C147.461 15.3763 147.676 16.3757 147.676 17.5215ZM160.215 14.9434C160.215 15.5293 160.029 16.0306 159.658 16.4473C159.294 16.8574 158.753 17.1211 158.037 17.2383V17.3164C158.812 17.4076 159.424 17.6745 159.873 18.1172C160.329 18.5534 160.557 19.0938 160.557 19.7383C160.557 20.7995 160.14 21.61 159.307 22.1699C158.473 22.7233 157.282 23 155.732 23H150.137V12.082H155.732C157.23 12.082 158.35 12.3262 159.092 12.8145C159.84 13.2962 160.215 14.0059 160.215 14.9434ZM157.471 19.582C157.471 19.1523 157.305 18.8431 156.973 18.6543C156.641 18.459 156.143 18.3613 155.479 18.3613H153.115V20.9395H155.537C156.169 20.9395 156.647 20.8223 156.973 20.5879C157.305 20.347 157.471 20.0117 157.471 19.582ZM157.197 15.1777C157.197 14.5137 156.67 14.1816 155.615 14.1816H153.115V16.3398H155.273C155.905 16.3398 156.383 16.2487 156.709 16.0664C157.035 15.8841 157.197 15.5879 157.197 15.1777ZM169.863 23L169.287 21.5156H169.209C168.708 22.1471 168.19 22.5866 167.656 22.834C167.129 23.0749 166.439 23.1953 165.586 23.1953C164.538 23.1953 163.711 22.8958 163.105 22.2969C162.507 21.6979 162.207 20.8451 162.207 19.7383C162.207 18.5794 162.611 17.7266 163.418 17.1797C164.232 16.6263 165.456 16.3203 167.09 16.2617L168.984 16.2031V15.7246C168.984 14.6178 168.418 14.0645 167.285 14.0645C166.413 14.0645 165.387 14.3281 164.209 14.8555L163.223 12.8438C164.479 12.1862 165.872 11.8574 167.402 11.8574C168.867 11.8574 169.99 12.1764 170.771 12.8145C171.553 13.4525 171.943 14.4225 171.943 15.7246V23H169.863ZM168.984 17.9414L167.832 17.9805C166.966 18.0065 166.322 18.1628 165.898 18.4492C165.475 18.7357 165.264 19.1719 165.264 19.7578C165.264 20.5977 165.745 21.0176 166.709 21.0176C167.399 21.0176 167.949 20.819 168.359 20.4219C168.776 20.0247 168.984 19.4974 168.984 18.8398V17.9414Z" fill="#1A1A1A"/>
</svg>
