<svg width="28" height="16" viewBox="0 0 28 16" fill="none" xmlns="http://www.w3.org/2000/svg">
<path d="M27.8526 14.4492C27.8185 14.3762 27.787 14.3152 27.7576 14.2665C27.2714 13.3905 26.3434 12.3147 24.9732 11.0396L24.9438 11.0106L24.9293 10.9957L24.9148 10.9816H24.9003C24.2782 10.3876 23.8845 9.98862 23.7196 9.78379C23.4184 9.39505 23.3502 9.00076 23.5156 8.60177C23.6327 8.30008 24.0699 7.66255 24.8279 6.68877C25.2262 6.17329 25.542 5.75979 25.7755 5.44743C27.4568 3.20884 28.1853 1.77846 27.9621 1.15502L27.8743 1.00908C27.8159 0.921173 27.6651 0.840949 27.4222 0.767979C27.1794 0.695009 26.8683 0.683488 26.4896 0.731707L22.291 0.761578C22.1939 0.751763 22.0967 0.754324 21.9991 0.768405C21.902 0.783341 21.8389 0.797849 21.8095 0.812358C21.7801 0.827293 21.7563 0.839242 21.7367 0.84863L21.6783 0.892582C21.6297 0.921599 21.5765 0.972806 21.5181 1.0462C21.4597 1.11917 21.4107 1.20409 21.3724 1.30181C20.9156 2.47957 20.3958 3.57454 19.8125 4.58715C19.4529 5.19054 19.1223 5.71413 18.8215 6.15664C18.5202 6.60001 18.2676 6.92603 18.0635 7.13469C17.8594 7.34379 17.6745 7.51234 17.5096 7.63823C17.3443 7.76539 17.2177 7.81831 17.1308 7.7991C17.043 7.7799 16.9604 7.76027 16.8828 7.74021C16.7469 7.65274 16.637 7.53368 16.5548 7.38262C16.4721 7.23199 16.4163 7.0421 16.3869 6.81337C16.3579 6.58465 16.3404 6.3875 16.3362 6.22193C16.3311 6.05636 16.3336 5.82295 16.3434 5.52125C16.3532 5.21956 16.3579 5.01559 16.3579 4.90805C16.3579 4.53851 16.3651 4.13696 16.3801 3.70341C16.3945 3.27029 16.4069 2.9272 16.4163 2.67415C16.4261 2.42153 16.4308 2.15355 16.4308 1.87106C16.4308 1.58942 16.4137 1.36753 16.3796 1.20665C16.3455 1.0462 16.2944 0.890875 16.2267 0.739388C16.1585 0.588755 16.0588 0.471833 15.9276 0.389475C15.7963 0.306691 15.6336 0.240975 15.4393 0.192329C14.9237 0.0754065 14.268 0.0126781 13.4712 0.00243672C11.6634 -0.0163391 10.5019 0.100583 9.98679 0.353204C9.7827 0.460738 9.59778 0.606251 9.43289 0.791449C9.25778 1.00566 9.23349 1.12301 9.36003 1.14136C9.94333 1.22927 10.3562 1.43879 10.5991 1.7695L10.6868 1.94446C10.7546 2.07162 10.8228 2.29522 10.8909 2.61612C10.9591 2.93744 11.0026 3.29248 11.0222 3.68207C11.0707 4.39257 11.0707 5.00065 11.0222 5.50717C10.9736 6.01369 10.9276 6.40756 10.8837 6.6892C10.8398 6.97169 10.7742 7.19998 10.6868 7.37537C10.5991 7.55118 10.5411 7.65828 10.5117 7.69712C10.4823 7.73595 10.4585 7.76027 10.4389 7.77009C10.3123 7.81831 10.1815 7.84306 10.0452 7.84306C9.90882 7.84306 9.74393 7.77478 9.54921 7.63823C9.35492 7.50253 9.15296 7.31477 8.94418 7.07623C8.73498 6.83812 8.49979 6.50442 8.2369 6.07599C7.97444 5.64799 7.70217 5.1419 7.42054 4.55771L7.18747 4.13397C7.04175 3.86172 6.84235 3.46487 6.58969 2.94427C6.33703 2.42367 6.11334 1.92013 5.91905 1.43281C5.84107 1.22884 5.72475 1.07309 5.56924 0.965552L5.49638 0.921599C5.44781 0.882767 5.36983 0.841375 5.26289 0.797849C5.15552 0.753897 5.04431 0.722319 4.92757 0.70269L0.933106 0.731707C0.524925 0.731707 0.247976 0.824733 0.102258 1.0095L0.0438858 1.09698C0.0144866 1.14606 0 1.22415 0 1.33083C0 1.43836 0.0293992 1.56937 0.0877716 1.72469C0.671069 3.09746 1.30507 4.42116 1.9902 5.69578C2.67576 6.97126 3.27056 7.99838 3.77631 8.77673C4.28164 9.55592 4.79676 10.2903 5.32169 10.9816C5.84661 11.6729 6.19386 12.1154 6.36387 12.31C6.53387 12.505 6.66723 12.6509 6.76481 12.7482L7.1291 13.099C7.36216 13.3324 7.70515 13.6124 8.1568 13.9384C8.60886 14.2648 9.10907 14.5857 9.65829 14.9015C10.2071 15.2181 10.8466 15.4754 11.5752 15.6756C12.3042 15.8753 13.0136 15.9555 13.7035 15.9162H15.3801C15.7205 15.8872 15.9778 15.7805 16.1525 15.5949L16.2109 15.5219C16.2497 15.4639 16.2863 15.3734 16.3204 15.2523C16.3541 15.1306 16.3715 14.9966 16.3715 14.8507C16.3613 14.4321 16.3933 14.0544 16.4661 13.719C16.539 13.3832 16.6216 13.1302 16.7141 12.9595C16.8066 12.7896 16.9105 12.6458 17.0277 12.5289C17.1444 12.412 17.2267 12.342 17.2757 12.3173C17.3242 12.2934 17.3634 12.2763 17.3924 12.266C17.6255 12.1884 17.8999 12.2639 18.216 12.4922C18.5317 12.7214 18.8283 13.003 19.1052 13.3393C19.3822 13.6751 19.715 14.0519 20.104 14.4709C20.4925 14.8895 20.8326 15.2006 21.1244 15.405L21.4163 15.5808C21.6106 15.6973 21.8632 15.8044 22.1743 15.9022C22.4853 15.999 22.7576 16.0238 22.9906 15.9751L26.7226 15.9162C27.092 15.9162 27.3788 15.8556 27.5829 15.7336C27.787 15.6128 27.9084 15.478 27.9472 15.3321C27.9859 15.1861 27.9885 15.0214 27.9544 14.8358C27.9203 14.651 27.8862 14.5221 27.8526 14.4492Z" fill="black"/>
</svg>
