<svg width="25" height="26" viewBox="0 0 25 26" fill="none" xmlns="http://www.w3.org/2000/svg">
<path d="M21.3581 3.75418C19.008 1.3344 15.8825 0.00128144 12.5525 0C5.69165 0 0.107162 5.74212 0.10467 12.8003C0.10384 15.0564 0.677034 17.2588 1.7661 19.1998L0 25.8333L6.5988 24.0534C8.41682 25.0734 10.4641 25.6108 12.5471 25.6116H12.5521C19.4126 25.6116 24.9971 19.8687 25 12.8109C25.0021 9.38994 23.7086 6.17396 21.3581 3.75418ZM12.553 23.4494H12.5488C10.6922 23.4486 8.87122 22.9356 7.28289 21.9664L6.90492 21.7357L2.98892 22.7921L4.03396 18.8657L3.78807 18.4629C2.75258 16.7689 2.20555 14.8113 2.20638 12.8007C2.20846 6.93428 6.85009 2.16178 12.5567 2.16178C15.3201 2.16264 17.9177 3.27108 19.8712 5.28208C21.8246 7.29308 22.8995 9.96616 22.8987 12.8092C22.8966 18.6765 18.2554 23.4494 12.553 23.4494Z" fill="black"/>
<path d="M18.2279 15.4804C17.9168 15.3202 16.3879 14.5467 16.1026 14.4399C15.8176 14.3331 15.6099 14.2797 15.4027 14.6001C15.1954 14.9204 14.5994 15.6406 14.4179 15.8542C14.2364 16.0677 14.0548 16.0942 13.7442 15.934C13.4331 15.7738 12.4308 15.4364 11.2429 14.3463C10.3183 13.498 9.694 12.4507 9.51249 12.1307C9.33097 11.8104 9.49296 11.6374 9.64872 11.478C9.7887 11.3345 9.95983 11.1043 10.1152 10.9176C10.2705 10.731 10.3224 10.5973 10.4263 10.3841C10.5301 10.1706 10.4782 9.98389 10.4005 9.82371C10.3228 9.66353 9.70064 8.08907 9.44146 7.44878C9.18892 6.82515 8.93264 6.90972 8.74158 6.8999C8.56048 6.8905 8.3528 6.88879 8.14554 6.88879C7.93828 6.88879 7.60142 6.96867 7.31607 7.28903C7.03114 7.60939 6.22742 8.38295 6.22742 9.95741C6.22742 11.5319 7.34182 13.0529 7.49758 13.2661C7.65293 13.4796 9.69067 16.7102 12.8108 18.0958C13.5531 18.4256 14.1321 18.6221 14.584 18.7694C15.3292 19.0129 16.007 18.9787 16.5433 18.8963C17.141 18.8044 18.3833 18.1227 18.6425 17.3756C18.9017 16.6286 18.9017 15.9878 18.824 15.8546C18.7463 15.7209 18.539 15.6406 18.2279 15.4804Z" fill="black"/>
</svg>
