<svg width="27" height="20" viewBox="0 0 27 20" fill="none" xmlns="http://www.w3.org/2000/svg">
<path d="M26.6622 3.98342C26.4062 1.87244 25.2384 0.54834 23.1656 0.352757C20.7923 0.128872 15.6546 0 13.2716 0C8.39715 0 6.21886 0.124324 3.91377 0.373478C1.71708 0.610502 0.755458 1.62986 0.377487 3.73427C0.112762 5.20898 0 6.59019 0 9.85445C0 12.7867 0.132604 14.6308 0.337802 16.1823C0.61995 18.313 2.02052 19.5103 4.07299 19.6887C6.46083 19.8964 11.2443 20 13.6094 20C15.8946 20 21.0376 19.8757 23.3243 19.6058C25.371 19.3642 26.3442 18.2226 26.6622 16.1202C26.6622 16.1202 27 13.8172 27 9.83373C27 7.56557 26.8413 5.45611 26.6622 3.98342ZM10.6292 13.9627V5.85738L18.0197 9.8686L10.6292 13.9627Z" fill="black"/>
</svg>
